<?xml version="1.0" encoding="utf-8"?>
<!-- Generator: Adobe Illustrator 23.0.3, SVG Export Plug-In . SVG Version: 6.00 Build 0)  -->
<svg version="1.1" id="Слой_1" xmlns="http://www.w3.org/2000/svg" xmlns:xlink="http://www.w3.org/1999/xlink" x="0px" y="0px"
	 viewBox="0 0 313.2 81.5" style="enable-background:new 0 0 313.2 81.5;" xml:space="preserve">
<style type="text/css">
	.st0{fill:#D84C42;}
</style>
<g>
	<path class="st0" d="M32.4,54.6c-3.7-4.1-4.7-5.3-4.9-5.7c0.1-0.2,0.7-0.7,3.1-1.5c2.3-0.8,4.1-1.6,5.5-2.4c3.3-2,5.9-4.8,7.6-8.3
		c1.7-3.5,2.6-7.7,2.6-12.4c0-4.4-0.8-7.9-2.3-10.5c-1.6-2.6-3.8-3.9-6.5-3.9c-3.3,0-6.4,1.8-9.1,5.3c-2.6,3.4-6,10.4-10.1,21
		c-2.8,7.1-5,13.4-6.7,18.6C9.8,60,9,63.2,9,64.6c0,0.7,0.1,1.3,0.4,1.8c0.4,0.7,0.9,0.8,1.3,0.8c1.5,0,3.1-2.3,4.9-7.2
		c1.7-4.6,3.1-10.4,4.2-17.3c4.5-11.8,7.9-19.6,10.3-23.3c2.3-3.6,4.5-5.4,6.6-5.4c1.6,0,2.8,0.8,3.7,2.5c0.9,1.8,1.4,4.3,1.4,7.5
		c0,4-0.8,7.6-2.4,10.8c-1.6,3.2-3.7,5.5-6.2,6.9c-1,0.5-2.4,1.1-4.4,1.9c-4,1.6-6,3.3-6,5.1c0,0.8,0.6,2.3,5.5,7.9
		c3.5,4,6.4,8.2,8.5,12.5l0.3,0.6l3.4-2.8l-0.2-0.3C38.5,62.4,35.8,58.3,32.4,54.6z"/>
	<path class="st0" d="M132,33.2c1.1,0,2.1-0.5,2.8-1.5c0.7-1,1-2.1,1-3.4c0-0.7-0.2-1.3-0.6-1.7c-0.4-0.4-1-0.7-1.7-0.7
		c-1,0-1.9,0.6-2.7,1.7c-0.7,1.1-1.1,2.2-1.1,3.4c0,0.7,0.2,1.2,0.6,1.7C130.7,32.9,131.3,33.2,132,33.2z"/>
	<path class="st0" d="M189.9,56.9c2.3-3.1,4.6-6.7,6.7-10.6c2.1-4,4.2-8.4,6-13.1c1.8-4.6,3.2-8.7,4.1-12.3c1-3.6,1.5-6.5,1.5-8.6
		c0-1.3-0.1-2.2-0.4-3c-0.4-1.1-1.1-1.3-1.6-1.3c-1.9,0-4.2,2.6-7.2,8.1c-2.8,5.1-5.6,12-8.4,20.3c-6.1,0-11.3,2.1-15.7,6.2
		c-3.3,3.1-5.3,6.6-6.2,10.5c-3.2,2.6-6,4.6-8.1,6.2c-3.2,2.3-3.8,2.5-3.9,2.5c0,0,0-0.1,0-0.2c0,0,0-0.1,0.1-0.2
		c0.1-0.2,0.2-0.5,0.4-0.8l8.2-17.8c0.4-0.9,0.7-1.6,0.8-2c0.1-0.5,0.2-0.9,0.2-1.3c0-0.7-0.1-1.3-0.4-1.7c-0.3-0.5-0.8-0.7-1.3-0.7
		c-1.7,0-4.5,1.6-8.5,4.9c-3.6,2.9-8.7,7.6-15.2,14l8.6-18.2h-4.5l-3.6,7.4c-0.3,0.7-1.3,1.8-2.8,3.3c-1.5,1.5-3.3,3-5.3,4.5L133,53
		v0.1c-3.2,2.5-5.9,4.6-8,6.1c-2.8,2-3.7,2.4-3.9,2.5c0-0.1-0.1-0.1-0.1-0.2c0,0,0-0.1,0.1-0.3c0.1-0.2,0.2-0.5,0.3-0.7l10.7-22.8
		h-4.5L124,45c-0.3,0.7-1.3,1.8-2.8,3.3c-1.5,1.5-3.3,3-5.3,4.5l-0.2,0.2V53c-3.2,2.6-5.9,4.6-8.1,6.1c-3.2,2.3-3.8,2.5-3.9,2.5
		c0,0,0-0.1,0-0.2c0,0,0-0.1,0.1-0.2c0.1-0.2,0.2-0.5,0.4-0.9l8.2-17.8c0.3-0.7,0.6-1.4,0.8-2c0.2-0.6,0.3-1.2,0.3-1.6
		c0-0.6-0.2-1.1-0.6-1.4c-0.4-0.3-0.9-0.5-1.5-0.5c-0.9,0-2.8,0.6-8.1,5.3c-3.3,3-7.4,7.3-12.2,12.6l5.5-12.4
		c0.4-0.9,0.6-1.6,0.8-2.1c0.2-0.6,0.3-1.1,0.3-1.5c0-0.6-0.2-1.1-0.6-1.5c-0.4-0.3-0.9-0.5-1.5-0.5c-0.9,0-2.8,0.6-8.2,5.5
		c-3.4,3.1-7.6,7.3-12.5,12.7l8.4-17.6h-4.5L75.1,45c-0.3,0.7-1.3,1.8-2.8,3.3c-1.5,1.5-3.3,3-5.3,4.5L66.7,53V53
		c-5.4,4.3-9.3,7-11.5,8.2c-2.4,1.3-4.5,1.9-6.4,1.9c-1.6,0-2.7-0.4-3.5-1.3c-0.8-0.9-1.2-2.2-1.2-4c0-0.4,0-0.7,0.1-1.1
		c0-0.2,0.1-0.5,0.1-0.7c0.1,0,0.3,0,0.4,0c0.3,0,0.7,0,1.3,0c5.3,0,9.8-1.5,13.5-4.3c3.8-2.9,5.7-6.2,5.7-10c0-1.5-0.5-2.7-1.5-3.6
		c-1-0.8-2.3-1.3-4.1-1.3c-2,0-4.2,0.7-6.5,1.9c-2.3,1.3-4.7,3.1-7,5.3c-2.1,2.1-3.7,4.3-4.7,6.5c-1.1,2.3-1.6,4.6-1.6,6.9
		c0,3,0.8,5.3,2.2,6.9c1.5,1.6,3.6,2.5,6.4,2.5c2.3,0,4.8-0.7,7.5-2.1c2.5-1.3,6.5-4.2,12-8.5c0.7-0.4,1.4-0.9,2.1-1.5
		c0.2-0.2,0.5-0.4,0.8-0.6c-0.5,1-1.1,2.1-1.8,3.3c-2.8,5-3.1,6.3-3.1,6.8c0,0.7,0.2,1.3,0.5,1.8c0.4,0.5,0.9,0.8,1.5,0.8
		c1,0,3-0.8,8.9-7.8c2.8-3.3,5.2-6.1,7.1-8.1c2.3-2.4,4.2-4.4,5.6-5.8c0.9-0.8,1.5-1.3,1.9-1.6c0,0.1-0.1,0.2-0.1,0.4
		c-0.3,0.6-0.6,1.5-1.1,2.6l-7.1,15.4l-0.2,0.5c-0.5,1.1-0.8,1.9-0.8,2.6c0,0.5,0.2,1,0.6,1.3c0.4,0.3,0.8,0.5,1.4,0.5
		c0.8,0,2.3-0.7,6.8-6c2.9-3.4,5.4-6.2,7.5-8.4c2.5-2.7,4.7-4.9,6.6-6.7c1.1-1.1,1.8-1.7,2.3-2.1c0,0,0,0,0,0
		c-0.1,0.3-0.3,0.8-0.5,1.3l-7.9,16.4c-0.2,0.4-0.3,0.9-0.5,1.4c-0.1,0.5-0.2,0.9-0.2,1.3c0,0.9,0.2,1.6,0.6,2.1
		c0.4,0.5,1,0.7,1.8,0.7c1.2,0,4-1,15.2-9.7l1.1-0.9c0.7-0.4,1.4-0.9,2.1-1.5c0.3-0.2,0.6-0.4,0.9-0.7l-3.7,7.2
		c-0.3,0.6-0.5,1.1-0.7,1.6c-0.2,0.5-0.2,1-0.2,1.4c0,0.8,0.2,1.4,0.5,1.9c0.4,0.6,0.9,0.9,1.6,0.9c1.2,0,4.2-1,15.8-10l1.1-0.9
		c0.7-0.4,1.3-0.9,2-1.4c0.2-0.2,0.5-0.4,0.7-0.6c-0.4,0.7-0.8,1.5-1.3,2.4c-3.2,5.7-3.6,7.1-3.6,7.7c0,0.7,0.2,1.3,0.5,1.8
		c0.4,0.5,0.9,0.8,1.6,0.8c1.3,0,2.8-1.1,4.5-3.4c0.5-0.6,0.8-1,1.1-1.3c1.7-2,3.7-4.2,5.8-6.4c2.2-2.2,4.6-4.5,7.1-6.7
		c2-1.8,3.8-3.4,5.4-4.6c1.5-1.1,2.1-1.5,2.4-1.6c0,0,0,0.1,0,0.1c0,0,0,0.1-0.1,0.3c-0.1,0.2-0.4,0.8-0.8,1.7l-7.8,16.3
		c-0.3,0.6-0.6,1.2-0.7,1.7c-0.2,0.5-0.3,1-0.3,1.3c0,0.8,0.2,1.4,0.6,1.9c0.5,0.7,1.1,0.8,1.5,0.8c1.2,0,4.1-1,15.3-9.6
		c0.1,2.8,0.7,5,1.9,6.7c1.3,1.8,3.2,2.7,5.5,2.7c1.4,0,3-0.5,4.8-1.6c1.5-0.9,3.2-2.3,5.1-4.1c0,1.8,0.4,3.1,0.9,4.1
		c0.7,1.1,1.7,1.6,3,1.6c1.2,0,4-1,15-9.5l2.4-1.8v-4.4l-3.9,3c-9.2,7.2-11.6,8.3-12.2,8.3c-0.1,0-0.4,0-0.8-0.7
		c-0.3-0.5-0.4-1.3-0.4-2.2c0-0.5,0-1,0.1-1.5C189.8,57.9,189.8,57.4,189.9,56.9z M191.7,47.2c1.6-6.6,3.4-12.7,5.5-18.2
		c2.1-5.5,4.3-10.1,6.5-13.5c-0.4,3.7-1.7,8.5-3.8,14.3C197.8,35.6,195,41.4,191.7,47.2z M189.4,40.3c-0.9,3.4-1.6,6.2-2.1,8.4
		c-0.5,2.3-0.8,4.4-1.1,6.3c-2.5,2.8-4.5,4.8-6.1,6.1c-1.5,1.2-2.8,1.8-3.7,1.8c-1.1,0-2-0.5-2.7-1.6c-0.7-1.1-1.1-2.6-1.1-4.5
		c0-4.1,1.8-7.9,5.3-11.3C181.2,42.2,185.1,40.4,189.4,40.3z M47,52.5c-0.4,0-0.8,0-1.2,0c-0.2,0-0.3,0-0.5,0c1.8-3.2,4-5.9,6.7-8.1
		c2.8-2.3,5.2-3.5,7.1-3.5c0.6,0,1.1,0.1,1.4,0.4c0.3,0.3,0.5,0.6,0.5,1.1c0,2.1-1.5,4.4-4.3,6.6C53.7,51.3,50.5,52.5,47,52.5z"/>
	<path class="st0" d="M282,24.5c3.6-7.1,5.3-11.2,5.3-12.6c0-0.4-0.1-1-0.8-1.5c-0.5-0.4-1.1-0.6-1.9-0.6c-1.3,0-3.8,1-11.3,9.4
		c-5.2,5.9-14.6,17.8-28,35.4l7.7-33.6c0.4-1.7,0.7-3.1,0.9-4.2c0.2-1.1,0.3-2,0.3-2.6c0-1.3-0.3-2.3-0.8-3c-0.4-0.5-1-0.8-1.8-1
		l0.1-0.3l-0.1,0.3c-0.2,0-0.4,0-0.7,0c-1.4,0-3.7,1.2-8,11.5c-1.5,3.6-2.8,6.6-3.7,8.7c-4.6,10.2-8.7,18.2-12.1,23.7
		c-3.4,5.5-7,10-10.6,13.4l-0.9,0.9h6.7l0.2-0.2c7.2-8.7,15-22.9,23.3-42c1.1-2.6,2.1-4.8,2.9-6.7l-8.8,39.9c-0.1,0.4-0.2,1-0.4,1.7
		c-0.6,2.3-0.6,3-0.6,3.3c0,0.6,0.2,1.1,0.5,1.6c0.4,0.6,0.9,0.8,1.3,0.8c0.7,0,2-0.8,5.9-6.3c2.6-3.7,4.8-6.8,6.7-9.2
		c7.5-9.8,14-17.9,19.1-24.1c3.7-4.5,6.7-7.9,9-10.4c-6.3,11.8-11,21.7-14,29.4c-3.3,8.4-5.1,15.2-5.2,20l0,0.5h5V65
		c0-3.2,0.8-7.3,2.3-12.1c1.5-4.8,3.9-10.6,7-17.1C277.9,32.8,279.7,29,282,24.5z"/>
	<path class="st0" d="M302.6,52c-6.1,4.9-10.4,8-12.8,9.3c-2.4,1.3-4.5,1.9-6.4,1.9c-1.6,0-2.7-0.4-3.5-1.3c-0.8-0.9-1.2-2.2-1.2-4
		c0-0.4,0-0.7,0.1-1.1c0-0.2,0.1-0.5,0.1-0.7c0.1,0,0.3,0,0.4,0c0.3,0,0.7,0,1.3,0c5.3,0,9.8-1.5,13.5-4.3c3.8-2.9,5.7-6.2,5.7-10
		c0-1.5-0.5-2.7-1.5-3.6c-1-0.8-2.3-1.3-4.1-1.3c-2,0-4.2,0.7-6.5,1.9c-2.3,1.3-4.7,3.1-7,5.3c-2.1,2.1-3.7,4.3-4.7,6.5
		c-1.1,2.3-1.6,4.6-1.6,6.9c0,3,0.8,5.3,2.2,6.9c1.5,1.6,3.6,2.5,6.4,2.5c2.3,0,4.8-0.7,7.5-2.1c2.6-1.4,6.9-4.4,12.8-9.1l0.2-0.1
		v-4.5L302.6,52z M281.5,52.5c-0.4,0-0.8,0-1.2,0c-0.2,0-0.3,0-0.5,0c1.8-3.2,4-5.9,6.7-8.1c2.8-2.3,5.2-3.5,7.1-3.5
		c0.6,0,1.1,0.1,1.4,0.4c0.3,0.3,0.5,0.6,0.5,1.1c0,2.1-1.5,4.4-4.3,6.6C288.2,51.3,285,52.5,281.5,52.5z"/>
</g>
</svg>
